<svg width="11" height="17" viewBox="0 0 11 17" fill="none" xmlns="http://www.w3.org/2000/svg">
<path d="M1.0678 7.9721C0.956194 8.0837 0.900391 8.21205 0.900391 8.35714C0.900391 8.50223 0.956194 8.63058 1.0678 8.74219L8.86914 16.5435C8.98075 16.6551 9.1091 16.7109 9.25419 16.7109C9.39927 16.7109 9.52762 16.6551 9.63923 16.5435L10.4763 15.7065C10.5879 15.5949 10.6437 15.4665 10.6437 15.3214C10.6437 15.1763 10.5879 15.048 10.4763 14.9364L3.89704 8.35714L10.4763 1.7779C10.5879 1.66629 10.6437 1.53795 10.6437 1.39286C10.6437 1.24777 10.5879 1.11942 10.4763 1.00781L9.63923 0.170758C9.52762 0.0591503 9.39927 0.00334668 9.25419 0.00334668C9.1091 0.00334668 8.98075 0.0591503 8.86914 0.170758L1.0678 7.9721Z" fill="white"/>
</svg>
