<svg width="60" height="60" viewBox="0 0 60 60" fill="none" xmlns="http://www.w3.org/2000/svg">
<g clip-path="url(#clip0_35_54)">
<path d="M5.99757 60.0146H15.5936C18.9046 60.0105 21.5871 57.3281 21.5912 54.0171V39.2118C21.5959 37.6205 20.9633 36.0936 19.8353 34.9714L19.0457 34.1819C18.3734 33.506 17.995 32.5917 17.9927 31.6382V31.0056C19.4253 30.4996 20.3852 29.1478 20.3917 27.6279V25.2289C20.3917 23.2416 18.7804 21.6304 16.7931 21.6304H4.79806C2.81079 21.6304 1.19953 23.2416 1.19953 25.2289V27.6279C1.20598 29.1478 2.16594 30.4996 3.59855 31.0056V31.6382C3.59621 32.5917 3.21785 33.506 2.54547 34.1819L1.75595 34.9714C0.627894 36.0936 -0.00465973 37.6205 2.58466e-05 39.2118V54.0171C0.00412574 57.3281 2.68662 60.0105 5.99757 60.0146ZM2.39904 51.6181V42.022H11.9951V51.6181H2.39904ZM13.1946 54.0171C13.857 54.0171 14.3941 53.48 14.3941 52.8176V40.8225C14.3941 40.1601 13.857 39.623 13.1946 39.623H2.39904V39.2118C2.40139 38.2583 2.77975 37.3441 3.45213 36.6676L4.24165 35.8781C5.3697 34.7559 6.00225 33.2289 5.99757 31.6382V31.2264H15.5936V31.6382C15.589 33.2289 16.2215 34.7559 17.3496 35.8781L18.1391 36.6676C18.8115 37.3441 19.1898 38.2583 19.1922 39.2118V54.0171C19.1922 56.0044 17.5809 57.6156 15.5936 57.6156H5.99757C4.0103 57.6156 2.39904 56.0044 2.39904 54.0171H13.1946ZM3.59855 25.2289C3.59855 24.5665 4.13564 24.0294 4.79806 24.0294H16.7931C17.4556 24.0294 17.9927 24.5665 17.9927 25.2289V27.6279C17.9927 28.2903 17.4556 28.8274 16.7931 28.8274H4.79806C4.13564 28.8274 3.59855 28.2903 3.59855 27.6279V25.2289Z" fill="#27119B"/>
<path d="M16.7931 48.0195C17.4556 48.0195 17.9926 47.4825 17.9926 46.82V39.623C17.9926 38.9605 17.4556 38.4235 16.7931 38.4235C16.1307 38.4235 15.5936 38.9605 15.5936 39.623V46.82C15.5936 47.4825 16.1307 48.0195 16.7931 48.0195Z" fill="#27119B"/>
<path d="M16.7931 54.0171C17.4556 54.0171 17.9926 53.4801 17.9926 52.8176V50.4186C17.9926 49.7562 17.4556 49.2191 16.7931 49.2191C16.1307 49.2191 15.5936 49.7562 15.5936 50.4186V52.8176C15.5936 53.4801 16.1307 54.0171 16.7931 54.0171Z" fill="#27119B"/>
<path d="M51.3487 25.3981C51.3499 24.4341 50.9656 23.5099 50.2821 22.8299C48.8425 21.4541 46.5753 21.4541 45.135 22.8299L45.1198 22.8445L36.4772 14.1938L31.3612 9.07652C30.5014 8.21496 29.2673 7.84187 28.0742 8.08201L25.6752 8.56169L23.5415 6.42683C22.5962 5.48268 21.0646 5.48268 20.1193 6.42683L20.1052 6.44205L14.0427 0.39063C13.7416 0.0790385 13.2953 -0.0463006 12.876 0.0638105C12.4566 0.173336 12.1292 0.500741 12.0197 0.9201C11.9096 1.33946 12.0349 1.78576 12.3465 2.08681L18.4014 8.14175L18.3862 8.15639C17.4432 9.10229 17.4432 10.6327 18.3862 11.5786L20.5211 13.7123L20.0414 16.1113C19.8018 17.3056 20.1755 18.5402 21.0371 19.4006L34.7951 33.1651L34.7857 33.1791C33.3643 34.6006 33.3643 36.9053 34.7857 38.3262C36.2072 39.7477 38.5114 39.7477 39.9329 38.3262L40.8108 37.4483L41.6876 38.3262C41.7345 38.3731 41.7848 38.4164 41.8387 38.4545L46.7439 41.9576C45.4396 43.423 45.5339 45.6586 46.9571 47.0086C48.3804 48.3587 50.6183 48.3352 52.0129 46.9559L58.9165 40.0523C60.3268 38.6636 60.3655 36.4011 59.0032 34.9649C57.6408 33.5288 55.3795 33.448 53.9181 34.7828L50.4139 29.8781C50.3764 29.8243 50.3337 29.7733 50.2868 29.727L49.4089 28.8503L50.2868 27.9723C50.9703 27.2905 51.3522 26.3634 51.3487 25.3981ZM55.4591 36.6014C55.9441 36.1164 56.7301 36.1158 57.2156 36.6002C57.7006 37.0852 57.7012 37.8712 57.2168 38.3561L50.3108 45.2609C49.82 45.7283 49.0487 45.7283 48.5573 45.2609C48.0729 44.7754 48.0729 43.9899 48.5573 43.5044L55.4591 36.6014ZM44.2617 33.9974L49.4692 39.2042L48.4471 40.2262L43.3141 36.5598L42.507 35.7533L44.2617 33.9974ZM51.1648 37.5086L45.9532 32.3059L47.708 30.5511L48.5151 31.3582L52.1786 36.4866L51.1648 37.5086ZM48.5906 26.2761L38.2367 36.6301C37.7459 37.0992 36.9727 37.0992 36.4819 36.6301C35.997 36.1457 35.997 35.3597 36.4819 34.8753L46.8359 24.5214C47.3208 24.0364 48.1063 24.0364 48.5906 24.5214C49.0756 25.0057 49.0756 25.7917 48.5906 26.2761ZM22.3924 16.5928L22.9289 13.9161L25.8662 10.9789L28.5434 10.4424C28.9504 10.3615 29.3704 10.4886 29.6638 10.7821L30.4809 11.5991L28.7402 13.3334C28.271 13.8019 28.2704 14.5627 28.739 15.0319C29.2076 15.501 29.9684 15.5016 30.4375 15.0331L32.177 13.2924L33.933 15.0477L31.329 17.6482C31.0168 17.9492 30.892 18.395 31.0016 18.8143C31.1117 19.2343 31.4391 19.5617 31.8584 19.6712C32.2778 19.7813 32.7235 19.656 33.0251 19.3444L35.6256 16.7398L37.3804 18.4963L35.6397 20.2364C35.3281 20.538 35.2028 20.9837 35.3129 21.4031C35.4224 21.8225 35.7498 22.1499 36.1692 22.26C36.5885 22.3695 37.0348 22.2448 37.3359 21.9326L39.0801 20.1913L40.8348 21.946L38.232 24.5489C37.9204 24.8499 37.7951 25.2962 37.9046 25.7156C38.0147 26.135 38.3421 26.4624 38.7615 26.5719C39.1808 26.682 39.6271 26.5567 39.9282 26.2451L42.531 23.6422L43.4236 24.5342L36.4913 31.4666L22.7321 17.7091C22.4398 17.4169 22.3127 16.9981 22.3924 16.5928ZM21.8313 11.6167L20.0859 9.85257L21.8418 8.12652L23.5825 9.86663L21.8313 11.6167Z" fill="#27119B"/>
<path d="M3.90191 46.6549C3.46849 47.0871 3.49953 47.5504 3.99445 48.0448C4.40092 48.4524 5.16877 48.3546 5.41593 48.6012C5.6631 48.8483 5.5647 49.6162 5.97235 50.0227C6.46668 50.517 6.92996 50.548 7.36279 50.1164C7.89988 49.0809 7.81612 47.8322 7.1455 46.8775C6.19081 46.2027 4.93976 46.1172 3.90191 46.6549Z" fill="#27119B"/>
<path d="M8.2261 43.6544C7.84482 43.4412 7.26673 43.7148 6.9405 44.2665C6.61426 44.8182 6.65585 45.4396 7.0389 45.6528C7.42136 45.8666 7.99827 45.5931 8.3245 45.0414C8.65074 44.4896 8.60915 43.8694 8.2261 43.6544Z" fill="#27119B"/>
<path d="M5.80192 44.6817C6.12933 44.1294 6.0854 43.5085 5.70353 43.2948C5.32224 43.0816 4.74415 43.3545 4.41675 43.9068C4.08934 44.4585 4.1321 45.0782 4.51514 45.2932C4.8976 45.5081 5.47335 45.2334 5.80192 44.6817Z" fill="#27119B"/>
<path d="M9.75073 47.0766C10.3025 46.7492 10.576 46.1723 10.3628 45.791C10.149 45.4097 9.52289 45.3641 8.97585 45.6926C8.42881 46.0212 8.1506 46.5958 8.36438 46.9782C8.57758 47.3613 9.199 47.4058 9.75073 47.0766Z" fill="#27119B"/>
<path d="M10.7089 48.2919C10.4764 47.9205 9.84673 47.8959 9.30262 48.2362C8.7585 48.5771 8.50607 49.154 8.738 49.5254C8.97053 49.8961 9.60015 49.9213 10.1443 49.5804C10.6884 49.2401 10.9408 48.6632 10.7089 48.2919Z" fill="#27119B"/>
</g>
<defs>
<clipPath id="clip0_35_54">
<rect width="60" height="60" fill="white"/>
</clipPath>
</defs>
</svg>
