<svg width="60" height="60" viewBox="0 0 60 60" fill="none" xmlns="http://www.w3.org/2000/svg">
<path d="M58.8 16.8H46.8V7.2H48C48.6627 7.2 49.2 6.6627 49.2 6V1.2C49.2 0.537305 48.6627 0 48 0H12C11.3373 0 10.8 0.537305 10.8 1.2V6C10.8 6.6627 11.3373 7.2 12 7.2H13.2V16.8H1.2C0.537305 16.8 0 17.3373 0 18V22.8C0 23.4627 0.537305 24 1.2 24V52.8C0.537305 52.8 0 53.3373 0 54V58.8C0 59.4627 0.537305 60 1.2 60H58.8C59.4627 60 60 59.4627 60 58.8V54C60 53.3373 59.4627 52.8 58.8 52.8V24C59.4627 24 60 23.4627 60 22.8V18C60 17.3373 59.4627 16.8 58.8 16.8ZM13.2 2.4H46.8V4.8H13.2V2.4ZM44.4 7.2V52.8H34.8V42C34.8 41.3373 34.2627 40.8 33.6 40.8H26.4C25.7373 40.8 25.2 41.3373 25.2 42V52.8H15.6V7.2H44.4ZM57.6 21.6H46.8V19.2H57.6V21.6ZM2.4 55.2H57.6V57.6H2.4V55.2ZM32.4 52.8H31.2V43.2H32.4V52.8ZM28.8 52.8H27.6V43.2H28.8V52.8ZM13.2 21.6H2.4V19.2H13.2V21.6ZM3.6 24H13.2V52.8H3.6V24ZM56.4 52.8H46.8V24H56.4V52.8Z" fill="#27119B"/>
<path d="M10.8 25.2H5.99999C5.33729 25.2 4.79999 25.7373 4.79999 26.4V31.2C4.79999 31.8626 5.33729 32.4 5.99999 32.4H10.8C11.4627 32.4 12 31.8626 12 31.2V26.4C12 25.7373 11.4627 25.2 10.8 25.2ZM9.59999 30H7.19999V27.6H9.59999V30Z" fill="#27119B"/>
<path d="M18 50.4H22.8C23.4627 50.4 24 49.8627 24 49.2V42C24 41.3374 23.4627 40.8 22.8 40.8H18C17.3373 40.8 16.8 41.3374 16.8 42V49.2C16.8 49.8627 17.3373 50.4 18 50.4ZM19.2 43.2H21.6V48H19.2V43.2Z" fill="#27119B"/>
<path d="M42 40.8H37.2C36.5373 40.8 36 41.3374 36 42V49.2C36 49.8627 36.5373 50.4 37.2 50.4H42C42.6627 50.4 43.2 49.8627 43.2 49.2V42C43.2 41.3374 42.6627 40.8 42 40.8ZM40.8 48H38.4V43.2H40.8V48Z" fill="#27119B"/>
<path d="M49.2 32.4H54C54.6627 32.4 55.2 31.8626 55.2 31.2V26.4C55.2 25.7373 54.6627 25.2 54 25.2H49.2C48.5373 25.2 48 25.7373 48 26.4V31.2C48 31.8626 48.5373 32.4 49.2 32.4ZM50.4 27.6H52.8V30H50.4V27.6Z" fill="#27119B"/>
<path d="M10.8 34.8H5.99999C5.33729 34.8 4.79999 35.3374 4.79999 36V40.8C4.79999 41.4627 5.33729 42 5.99999 42H10.8C11.4627 42 12 41.4627 12 40.8V36C12 35.3374 11.4627 34.8 10.8 34.8ZM9.59999 39.6H7.19999V37.2H9.59999V39.6Z" fill="#27119B"/>
<path d="M49.2 42H54C54.6627 42 55.2 41.4627 55.2 40.8V36C55.2 35.3374 54.6627 34.8 54 34.8H49.2C48.5373 34.8 48 35.3374 48 36V40.8C48 41.4627 48.5373 42 49.2 42ZM50.4 37.2H52.8V39.6H50.4V37.2Z" fill="#27119B"/>
<path d="M10.8 44.4H5.99999C5.33729 44.4 4.79999 44.9373 4.79999 45.6V50.4C4.79999 51.0627 5.33729 51.6 5.99999 51.6H10.8C11.4627 51.6 12 51.0627 12 50.4V45.6C12 44.9373 11.4627 44.4 10.8 44.4ZM9.59999 49.2H7.19999V46.8H9.59999V49.2Z" fill="#27119B"/>
<path d="M49.2 51.6H54C54.6627 51.6 55.2 51.0627 55.2 50.4V45.6C55.2 44.9373 54.6627 44.4 54 44.4H49.2C48.5373 44.4 48 44.9373 48 45.6V50.4C48 51.0627 48.5373 51.6 49.2 51.6ZM50.4 46.8H52.8V49.2H50.4V46.8Z" fill="#27119B"/>
<path d="M20.3004 30.1634C20.3244 32.7386 22.4244 34.8105 24.9996 34.7999C26.403 34.6851 27.7512 34.2052 28.9114 33.4078C29.3086 33.1798 29.8512 32.8681 29.9555 32.833C30.351 32.9876 30.7301 33.1804 31.0887 33.4078C32.2489 34.2052 33.5971 34.6851 35.0004 34.7999C37.5756 34.8105 39.6756 32.7386 39.6996 30.1634C39.6996 27.0251 34.626 19.6365 30 19.6365C25.374 19.6365 20.3004 27.0251 20.3004 30.1634ZM30 22.0365C33.2403 22.0365 37.2996 28.2878 37.2996 30.1634C37.2815 31.415 36.2526 32.4158 35.0004 32.3999C34.0231 32.2617 33.0926 31.8937 32.2846 31.3271C31.6114 30.8437 30.8274 30.5373 30.0047 30.4365C29.1821 30.5373 28.3981 30.8437 27.7248 31.3271C26.9139 31.8955 25.9799 32.2628 24.9996 32.3999C23.7475 32.4158 22.7186 31.415 22.7004 30.1634C22.7004 28.2878 26.7598 22.0365 30 22.0365Z" fill="#27119B"/>
<path d="M25.2938 17.5787C25.7526 17.8494 26.274 17.9941 26.8067 17.9988C27.0715 17.9977 27.3352 17.9572 27.5883 17.8787C29.4551 17.3186 30.433 14.8406 29.8143 12.2391C29.5324 10.8352 28.7016 9.60293 27.5063 8.81543C26.816 8.40234 25.9846 8.29512 25.2117 8.52012C23.3449 9.08027 22.367 11.5582 22.9858 14.1598C23.2688 15.5613 24.0996 16.7924 25.2938 17.5787ZM25.9031 10.8146C25.9336 10.8047 25.9658 10.8 25.9981 10.8C26.1088 10.8064 26.216 10.841 26.3098 10.9008C26.9297 11.3607 27.3481 12.041 27.4787 12.8016C27.828 14.2658 27.3586 15.4418 26.8969 15.5854C26.7551 15.6123 26.6086 15.5812 26.4903 15.4992C25.8703 15.0393 25.452 14.359 25.3213 13.5984C24.9721 12.1342 25.4403 10.9535 25.9031 10.8146Z" fill="#27119B"/>
<path d="M19.2938 22.3787C19.7526 22.6494 20.274 22.7942 20.8067 22.7988C21.0715 22.7977 21.3352 22.7572 21.5883 22.6787C23.4551 22.1186 24.433 19.6406 23.8143 17.0391C23.5324 15.6352 22.7016 14.4029 21.5063 13.6154C20.8154 13.2029 19.9846 13.0957 19.2117 13.3201C17.3449 13.8803 16.367 16.3582 16.9858 18.9598C17.2688 20.3613 18.0996 21.5924 19.2938 22.3787ZM19.9031 15.6147C19.9336 15.6047 19.9658 15.6 19.9981 15.6C20.1088 15.6065 20.216 15.641 20.3098 15.7008C20.9297 16.1608 21.3481 16.841 21.4787 17.6016C21.8279 19.0658 21.3586 20.2418 20.8969 20.3854C20.7551 20.4129 20.608 20.3819 20.4903 20.2992C19.8703 19.8393 19.452 19.159 19.3213 18.3985C18.9721 16.9342 19.4403 15.7535 19.9031 15.6147Z" fill="#27119B"/>
<path d="M32.4105 17.8799C32.6642 17.9579 32.9279 17.9983 33.1933 18C33.726 17.9954 34.2474 17.8506 34.7062 17.5799C35.901 16.793 36.7312 15.562 37.0142 14.1598C37.633 11.5594 36.6539 9.08149 34.7894 8.52016C34.0148 8.29751 33.1828 8.40825 32.4937 8.82485C31.3002 9.61059 30.4699 10.8399 30.1857 12.2403C29.567 14.8454 30.5449 17.3233 32.4105 17.8799ZM33.6902 10.8973C33.784 10.8375 33.8912 10.803 34.0019 10.7965C34.0342 10.7965 34.0664 10.8012 34.0969 10.8106C34.5597 10.95 35.0279 12.1307 34.6787 13.595C34.548 14.3549 34.1297 15.0358 33.5097 15.4957C33.392 15.5795 33.2449 15.6112 33.1031 15.5819C32.6402 15.443 32.1721 14.2618 32.5213 12.7981C32.6525 12.0393 33.0715 11.3596 33.6902 10.9008V10.8973Z" fill="#27119B"/>
<path d="M38.4105 22.6799C38.6642 22.7578 38.9279 22.7982 39.1933 22.8C39.726 22.7953 40.2474 22.6506 40.7062 22.3799C41.901 21.5929 42.7312 20.3619 43.0142 18.9597C43.633 16.3593 42.6539 13.8814 40.7894 13.3201C40.0148 13.0974 39.1828 13.2082 38.4937 13.6248C37.3002 14.4105 36.4699 15.6398 36.1857 17.0402C35.567 19.6453 36.5449 22.1232 38.4105 22.6799ZM39.6902 15.6972C39.784 15.6375 39.8912 15.6029 40.0019 15.5965C40.0342 15.5965 40.0664 15.6011 40.0969 15.6105C40.5597 15.75 41.0279 16.9306 40.6787 18.3949C40.548 19.1549 40.1297 19.8357 39.5097 20.2957C39.392 20.3795 39.2449 20.4111 39.1031 20.3818C38.6402 20.2429 38.1721 19.0617 38.5213 17.598C38.6525 16.8392 39.0715 16.1595 39.6902 15.7008V15.6972Z" fill="#27119B"/>
</svg>
