<svg width="60" height="60" viewBox="0 0 60 60" fill="none" xmlns="http://www.w3.org/2000/svg">
<g clip-path="url(#clip0_35_27)">
<path d="M59.9838 31.1827C60.0986 29.4476 59.603 27.7266 58.5826 26.3184C57.8281 25.3026 57.4725 24.0455 57.5844 22.785C57.7367 19.6434 58.5111 16.5634 59.8637 13.7241C60.0839 13.2895 60.0201 12.7646 59.7014 12.3967C59.3828 12.0283 58.8726 11.8889 58.411 12.0441C53.4418 13.7013 51.5632 18.3652 50.319 21.4535C50.0197 22.3468 49.6055 23.1979 49.0871 23.9846H39.5893C37.2643 23.9846 30.1864 23.9846 26.7719 22.8465C23.4851 21.751 17.9951 13.6773 17.9951 11.9879C17.9951 8.81471 14.0277 7.40181 13.5754 7.25067C13.2099 7.12883 12.8075 7.18975 12.4947 7.41586C12.1819 7.64139 11.9968 8.0034 11.9968 8.38884V11.1736C10.0584 11.9228 8.41823 13.2842 7.324 15.0509C6.60349 16.5528 5.22808 17.6365 3.59903 17.9862C1.65248 18.0829 0.0960678 19.6387 0 21.5853C0 27.5837 3.6125 27.5837 4.7987 27.5837C6.03177 27.7641 7.24492 28.0599 8.42292 28.467C8.6256 31.8546 9.98226 33.5053 10.8164 34.2129C11.1327 39.366 15.2549 42.7307 16.8025 43.8285C16.7632 45.2033 17.0169 46.5705 17.5476 47.8393C17.8956 48.6377 18.049 49.5082 17.9951 50.3775C17.7421 52.3182 16.5758 54.021 14.8577 54.9577C13.6908 55.4064 13.0096 56.6237 13.2374 57.8532C13.4653 59.0822 14.5373 59.9743 15.7879 59.9749H21.5942C21.9122 59.9749 22.2174 59.8484 22.4424 59.6234C25.7052 56.3618 27.0671 47.5716 27.4654 44.3697C32.1587 44.3352 36.8227 43.6328 41.3179 42.2832C42.9206 44.5759 45.0159 46.4809 47.451 47.8581C49.4556 48.8539 51.586 50.9211 51.586 52.7768C51.586 53.8277 50.107 54.6519 49.4708 54.9577C48.3678 55.489 47.775 56.7092 48.0386 57.9048C48.3028 59.1003 49.3542 59.9573 50.5785 59.9749H56.3848C56.8417 59.9772 57.2605 59.7201 57.4643 59.3118C58.3659 57.2528 58.8157 55.0245 58.7841 52.7768C58.6494 50.6218 58.23 48.4942 57.5376 46.4487C56.9166 44.6152 56.5294 42.7108 56.3848 40.7801C56.4808 39.5294 56.9723 38.3421 57.7871 37.3884C59.1766 35.6153 59.948 33.4356 59.9838 31.1827ZM50.5785 57.5755C50.4725 57.5755 50.3864 57.4894 50.3864 57.3008C50.3875 57.2229 50.4344 57.1526 50.5065 57.121C52.7471 56.0414 53.9854 54.502 53.9854 52.7768C53.9854 49.7777 51.2416 47.0655 48.523 45.6989C46.3884 44.4939 44.5626 42.8104 43.1883 40.7801C43.1883 40.3823 42.9909 40.0104 42.6617 39.7872C42.3325 39.564 41.9142 39.5183 41.5446 39.6659C36.6627 41.2944 31.5383 42.077 26.3929 41.9798C25.7743 41.9768 25.2553 42.4443 25.1932 43.0594C24.8839 46.1511 23.553 54.5236 21.0564 57.5755H15.778C15.7264 57.575 15.6766 57.5539 15.6403 57.5164C15.6046 57.4789 15.5847 57.4285 15.5864 57.3764C15.5905 57.2914 15.6467 57.217 15.7276 57.1907C18.3653 55.8891 20.1338 53.307 20.3945 50.3775C20.4525 49.1983 20.2393 48.0209 19.7706 46.9372C19.2926 45.7451 19.0958 44.4594 19.1948 43.1794C19.1948 42.7583 18.974 42.3681 18.6131 42.1514C18.5581 42.118 13.1964 38.8406 13.1964 33.582C13.1847 33.1427 12.944 32.7414 12.562 32.5241C12.49 32.4819 10.7971 31.4697 10.7971 27.5837C10.7971 27.067 10.4667 26.6083 9.9764 26.4455C8.29932 25.8456 6.56365 25.4233 4.7987 25.1843C3.67342 25.1843 2.39935 25.1843 2.39935 21.5853C2.48487 20.9614 2.97517 20.4711 3.59903 20.3856C6.15244 20.0476 8.36258 18.4449 9.47732 16.1235C10.2728 14.5313 12.7167 13.4189 13.5842 13.1243C14.0698 12.9579 14.3967 12.5016 14.3961 11.9879V10.3325C15.034 10.6652 15.478 11.2785 15.5958 11.9879C15.5958 15.0638 22.1366 23.83 26.0139 25.1234C29.7974 26.384 37.1671 26.384 39.5893 26.384H49.1867C50.9153 26.384 51.6317 24.6061 52.5385 22.3544C53.3205 19.948 54.6421 17.7519 56.4017 15.9337C55.6455 18.1409 55.2349 20.4524 55.1851 22.785C55.0703 24.5206 55.5658 26.241 56.5863 27.6498C57.3407 28.665 57.6963 29.9227 57.5844 31.1827C57.5481 32.9599 56.9184 34.6733 55.7955 36.0511C54.6995 37.3919 54.0651 39.0503 53.9854 40.7801C54.1201 42.9352 54.5395 45.0633 55.2319 47.1083C55.8529 48.9417 56.2401 50.8467 56.3848 52.7768C56.3894 54.4106 56.1171 56.0332 55.5799 57.5755H50.5785Z" fill="#27119B"/>
<path d="M40.171 34.9533C34.6213 38.2835 26.6424 37.2051 26.5622 37.1933C25.9061 37.0996 25.2986 37.5554 25.2043 38.2108C25.1106 38.8669 25.5663 39.475 26.2224 39.5687C27.3934 39.7157 28.572 39.786 29.7517 39.7784C33.8118 39.8885 37.8302 38.9343 41.407 37.0094C41.7825 36.7927 42.0121 36.3902 42.0074 35.9568C42.0021 35.5227 41.7637 35.1255 41.383 34.9176C41.0022 34.7096 40.5388 34.7231 40.171 34.9533Z" fill="#27119B"/>
<path d="M54.6514 31.3842C54.1002 31.0163 53.3551 31.1651 52.9872 31.7169C51.3183 34.4478 50.4198 37.5794 50.3864 40.78C50.3864 41.4426 50.9235 41.9797 51.586 41.9797C52.2486 41.9797 52.7857 41.4426 52.7857 40.78C52.8279 38.0538 53.5865 35.3868 54.9847 33.046C55.3508 32.4948 55.2015 31.7514 54.6514 31.3842Z" fill="#27119B"/>
<path d="M17.9951 33.5821V33.5751C17.9934 32.9126 17.4545 32.3772 16.7919 32.3789C16.1294 32.3807 15.594 32.9196 15.5958 33.5821C15.7709 36.4425 17.308 39.0451 19.7285 40.5786C20.2797 40.9465 21.0248 40.7977 21.3927 40.2465C21.7605 39.6953 21.6117 38.9502 21.0605 38.5823C19.3067 37.4933 18.1703 35.6394 17.9951 33.5821Z" fill="#27119B"/>
<path d="M42.9481 9.99146H43.0542C43.121 9.99146 43.1895 10.0002 43.2569 10.0002C45.0804 10.0026 46.6058 8.61487 46.7756 6.79954C46.8582 5.87519 46.5683 4.9561 45.969 4.2473C45.0523 3.15307 43.5679 2.71666 42.2048 3.14018C40.8411 3.5637 39.8658 4.76513 39.731 6.18623C39.7035 6.54883 39.7334 6.91319 39.8195 7.26582L39.3532 7.22013L33.5681 0.414553C33.134 -0.0693009 32.3942 -0.119092 31.8986 0.301497C31.4036 0.722087 31.3327 1.46017 31.7399 1.96687L35.9264 6.89913L28.9088 6.21494C28.2592 6.16749 27.6898 6.64666 27.6265 7.29511C27.5632 7.94357 28.0289 8.52408 28.6756 8.60257L38.1535 9.52635L38.5806 10.0301C37.5221 10.4308 36.7248 11.3212 36.4431 12.4172C36.1613 13.5132 36.4302 14.6771 37.1636 15.5388C38.4248 17.0144 40.6361 17.2059 42.1327 15.9693C42.8521 15.3742 43.3031 14.516 43.3846 13.5852C43.4666 12.655 43.1719 11.7312 42.5668 11.0195L41.5833 9.86083L42.9306 9.99146H42.9481ZM41.0039 13.3737C40.9788 13.6666 40.8358 13.9373 40.608 14.1235C40.1241 14.5236 39.4095 14.4627 39 13.9865C38.8102 13.7639 38.7177 13.4733 38.744 13.1816C38.7704 12.8899 38.9127 12.621 39.1394 12.4353C39.6227 12.0341 40.3385 12.095 40.7468 12.5724C40.9348 12.795 41.0256 13.0832 40.9987 13.3737H41.0039ZM42.3823 7.20139C42.1937 6.97996 42.1029 6.69235 42.1292 6.40356C42.1866 5.82481 42.6763 5.38547 43.258 5.39075H43.3588C43.661 5.41593 43.9405 5.56062 44.1361 5.79259C44.323 6.01401 44.4138 6.30105 44.388 6.58925C44.3218 7.2049 43.7747 7.6542 43.1584 7.59972C42.855 7.57687 42.5738 7.43336 42.3776 7.20139H42.3823Z" fill="#27119B"/>
<path d="M30.8711 19.114L29.2479 20.7372C28.9363 21.0383 28.811 21.4846 28.9211 21.904C29.0306 22.3235 29.3581 22.6509 29.7775 22.761C30.1969 22.8706 30.6433 22.7458 30.9444 22.4336L32.5676 20.8104C33.9295 19.4449 33.9295 17.2348 32.5676 15.8688L28.5104 11.8117C27.1444 10.4503 24.9349 10.4503 23.5688 11.8117L21.9456 13.4349C21.4911 13.9058 21.4975 14.6539 21.9603 15.1166C22.423 15.5794 23.1711 15.5858 23.642 15.1313L25.2652 13.5093C25.6782 13.0986 26.3407 13.0857 26.7695 13.4794L24.3795 15.8688C24.0679 16.1704 23.9431 16.6162 24.0527 17.0356C24.1622 17.4551 24.4902 17.7825 24.9097 17.8926C25.3291 18.0022 25.7749 17.8774 26.076 17.5652L28.4753 15.1658L29.2134 15.9039L26.814 18.3033C26.5018 18.6044 26.377 19.0507 26.4866 19.4701C26.5967 19.8896 26.9242 20.217 27.3436 20.3265C27.763 20.4367 28.2094 20.3113 28.5104 19.9997L30.8998 17.6097C31.2929 18.0391 31.28 18.7004 30.8711 19.114Z" fill="#27119B"/>
</g>
<defs>
<clipPath id="clip0_35_27">
<rect width="60" height="60" fill="white"/>
</clipPath>
</defs>
</svg>
