<svg width="147" height="28" viewBox="0 0 147 28" fill="none" xmlns="http://www.w3.org/2000/svg">
<path d="M25.5915 9.97488L23.3461 7.90217V2.30095C23.3461 1.80745 22.9513 1.41264 22.4578 1.41264H19.4474C18.9045 1.41264 18.4604 1.85679 18.4604 2.39965V3.38665L16.1656 1.23992C14.3643 -0.413307 11.6007 -0.413307 9.82414 1.23992L0.373613 9.97488C0.0281624 10.2957 -0.0952127 10.8138 0.0775124 11.258C0.250237 11.7021 0.694388 11.9982 1.16321 11.9982H2.39696C2.37229 12.3437 2.34761 12.6645 2.34761 13.0099V16.6865C2.34761 22.5345 7.13457 27.3214 12.9825 27.3214C18.8305 27.3214 23.6175 22.5345 23.6175 16.6865V13.0346C23.6175 12.6891 23.5928 12.3437 23.5681 12.0229H24.8019C25.2954 12.0229 25.7149 11.7268 25.8876 11.2827C26.0603 10.8138 25.9616 10.2957 25.5915 9.97488ZM13.5747 10.2957C14.1669 9.1606 15.45 8.69178 16.437 9.20995C17.424 9.72813 17.7695 11.0606 17.1773 12.1956C16.5851 13.3307 15.302 13.7995 14.315 13.2813C13.3033 12.7632 12.9825 11.4307 13.5747 10.2957ZM9.52804 9.20995C10.515 8.69178 11.8228 9.18528 12.3903 10.2957C12.9825 11.4307 12.6618 12.7632 11.6501 13.2813C10.6631 13.7995 9.35532 13.306 8.78779 12.1956C8.19559 11.0606 8.51637 9.72813 9.52804 9.20995ZM5.77744 14.8112C5.28394 13.8489 5.55537 12.7138 6.39432 12.2697C7.23327 11.8255 8.34364 12.245 8.83714 13.2073C9.33064 14.1696 9.05922 15.3047 8.22027 15.7488C7.38132 16.193 6.29562 15.7735 5.77744 14.8112ZM12.9825 23.4474C11.6254 23.4228 7.89949 23.3981 7.89949 20.1163C7.89949 16.341 10.9098 14.1943 12.9825 14.1943C15.0552 14.1943 18.0656 16.3164 18.0656 20.1163C18.0903 23.3981 14.3643 23.4228 12.9825 23.4474ZM20.1877 14.8112C19.6942 15.7735 18.5838 16.193 17.7448 15.7488C16.9059 15.3047 16.6098 14.1696 17.1279 13.2073C17.6214 12.245 18.7318 11.8255 19.5708 12.2697C20.4097 12.7138 20.7058 13.8489 20.1877 14.8112Z" fill="#FFCA00"/>
<path d="M42.1999 8.16397H40.7934V15.2952H42.1999C43.335 15.2952 44.2069 14.9744 44.8155 14.3328C45.4406 13.6748 45.7532 12.8029 45.7532 11.7172C45.7532 10.6151 45.4406 9.75142 44.8155 9.12631C44.2069 8.48475 43.335 8.16397 42.1999 8.16397ZM38.3259 5.86915H42.9402C42.9895 5.86915 43.0389 5.86915 43.0882 5.86915C45.8025 5.86915 47.8177 6.70811 49.1337 8.38604C49.8575 9.30726 50.2194 10.4177 50.2194 11.7172C50.2194 13.0168 49.8575 14.119 49.1337 15.0237C47.8012 16.7181 45.7367 17.5653 42.9402 17.5653H40.7687V21.4887C40.7687 22.377 41.0402 22.961 41.583 23.2407C40.9579 23.948 40.2012 24.3017 39.3129 24.3017C37.7008 24.3017 36.8947 23.3229 36.8947 21.3653V8.65747C36.8947 7.81851 36.615 7.25097 36.0557 6.95487C36.6644 6.23105 37.4211 5.86915 38.3259 5.86915ZM55.6945 20.6497C55.6945 21.4558 56.1551 21.8588 57.0763 21.8588C57.7508 21.8588 58.3594 21.5463 58.9023 20.9212V18.5277C56.7638 18.6428 55.6945 19.3502 55.6945 20.6497ZM62.7763 15.2952V20.8965C62.7763 21.9329 63.2205 22.5909 64.1088 22.8705C63.8127 23.2818 63.4097 23.6272 62.8997 23.9069C62.4062 24.1701 61.8798 24.3017 61.3205 24.3017C60.1032 24.3017 59.3465 23.7588 59.0504 22.6731C58.0304 23.7588 56.7555 24.3017 55.2257 24.3017C54.0906 24.3017 53.1858 24.022 52.5114 23.4627C51.8369 22.9034 51.4997 22.1138 51.4997 21.0939C51.4997 19.8437 52.1495 18.8484 53.449 18.1082C54.7651 17.3515 56.5828 16.9566 58.9023 16.9237V14.5796C58.9023 13.4774 58.4581 12.9263 57.5698 12.9263C57.2079 12.9263 56.9036 13.0415 56.6568 13.2718C56.4265 13.4856 56.3114 13.7817 56.3114 14.1601C56.3114 14.522 56.443 14.8592 56.7062 15.1718C56.1469 15.764 55.4395 16.0601 54.5841 16.0601C53.7451 16.0601 53.12 15.8709 52.7088 15.4926C52.314 15.1142 52.1166 14.6207 52.1166 14.012C52.1166 13.0908 52.6759 12.3341 53.7945 11.7419C54.9296 11.1497 56.2456 10.8536 57.7426 10.8536C59.256 10.8536 60.4733 11.2073 61.3945 11.9146C62.3157 12.622 62.7763 13.7488 62.7763 15.2952ZM82.7964 13.5185C82.8951 13.0086 82.9445 12.5562 82.9445 12.1614C82.9445 11.7666 82.8787 11.4622 82.7471 11.2484C83.257 10.9852 83.8739 10.8536 84.5977 10.8536C85.3215 10.8536 85.8562 11.1661 86.2016 11.7913C86.399 12.1367 86.4977 12.4986 86.4977 12.877C86.4977 13.2389 86.4484 13.5926 86.3497 13.938L84.2276 21.1926C83.8821 22.3606 83.4791 23.1749 83.0185 23.6355C82.5579 24.0796 81.8423 24.3017 80.8717 24.3017C79.9176 24.3017 79.1938 24.0549 78.7003 23.5614C78.2068 23.0679 77.8367 22.2783 77.5899 21.1926L76.4055 15.9614L75.1717 21.1926C74.8921 22.3277 74.4972 23.1337 73.9873 23.6108C73.4773 24.0714 72.7042 24.3017 71.6678 24.3017C70.6314 24.3017 69.8665 24.0796 69.373 23.6355C68.8959 23.1913 68.4929 22.377 68.1639 21.1926L66.3132 14.3081C66.1487 13.7159 65.9842 13.2718 65.8197 12.9757C65.6552 12.6631 65.4331 12.4328 65.1535 12.2848C65.7621 11.3306 66.6093 10.8536 67.695 10.8536C69.0604 10.8536 69.9076 11.783 70.2366 13.6419L71.6431 21.2666L73.4938 13.4198C73.7241 12.4493 74.0778 11.783 74.5548 11.4211C75.0483 11.0428 75.731 10.8536 76.6029 10.8536C77.4747 10.8536 78.1657 11.0428 78.6756 11.4211C79.1856 11.7995 79.531 12.4657 79.712 13.4198L81.2665 21.0692L82.7964 13.5185Z" fill="#27119B"/>
<path d="M89.8064 19.9095V8.38604C89.8064 7.53063 89.5349 6.96309 88.9921 6.68344C89.5843 5.97608 90.3328 5.62239 91.2375 5.62239C92.8826 5.62239 93.7051 6.59296 93.7051 8.5341V19.416C93.7051 20.5839 94.215 21.1679 95.235 21.1679H97.7765C98.9445 21.1679 99.8328 20.8389 100.441 20.1809C100.836 20.4606 101.034 20.9294 101.034 21.5874C101.034 22.229 100.77 22.7965 100.244 23.29C99.7341 23.7835 98.9856 24.0303 97.9986 24.0303H94.2973C92.6523 24.0303 91.4925 23.7259 90.8181 23.1173C90.1436 22.5086 89.8064 21.4394 89.8064 19.9095ZM106.804 20.6497C106.804 21.4558 107.265 21.8588 108.186 21.8588C108.861 21.8588 109.469 21.5463 110.012 20.9212V18.5277C107.874 18.6428 106.804 19.3502 106.804 20.6497ZM113.886 15.2952V20.8965C113.886 21.9329 114.33 22.5909 115.219 22.8705C114.923 23.2818 114.52 23.6272 114.01 23.9069C113.516 24.1701 112.99 24.3017 112.43 24.3017C111.213 24.3017 110.456 23.7588 110.16 22.6731C109.14 23.7588 107.866 24.3017 106.336 24.3017C105.201 24.3017 104.296 24.022 103.621 23.4627C102.947 22.9034 102.61 22.1138 102.61 21.0939C102.61 19.8437 103.259 18.8484 104.559 18.1082C105.875 17.3515 107.693 16.9566 110.012 16.9237V14.5796C110.012 13.4774 109.568 12.9263 108.68 12.9263C108.318 12.9263 108.014 13.0415 107.767 13.2718C107.537 13.4856 107.421 13.7817 107.421 14.1601C107.421 14.522 107.553 14.8592 107.816 15.1718C107.257 15.764 106.549 16.0601 105.694 16.0601C104.855 16.0601 104.23 15.8709 103.819 15.4926C103.424 15.1142 103.227 14.6207 103.227 14.012C103.227 13.0908 103.786 12.3341 104.904 11.7419C106.04 11.1497 107.356 10.8536 108.853 10.8536C110.366 10.8536 111.583 11.2073 112.504 11.9146C113.426 12.622 113.886 13.7488 113.886 15.2952ZM129.588 15.2952V21.4887C129.588 22.377 129.851 22.961 130.378 23.2407C129.786 23.948 129.037 24.3017 128.132 24.3017C126.52 24.3017 125.714 23.3229 125.714 21.3653V15.8627C125.714 15.2705 125.566 14.8099 125.27 14.4809C124.99 14.1354 124.587 13.9627 124.061 13.9627C123.534 13.9627 123.025 14.2094 122.531 14.703C122.037 15.18 121.684 15.8956 121.47 16.8497V21.4887C121.47 22.377 121.741 22.961 122.284 23.2407C121.659 23.948 120.902 24.3017 120.014 24.3017C118.402 24.3017 117.596 23.3229 117.596 21.3653V13.6419C117.596 12.7865 117.316 12.2107 116.757 11.9146C117.382 11.2073 118.114 10.8536 118.953 10.8536C119.792 10.8536 120.409 11.0674 120.804 11.4951C121.199 11.9064 121.421 12.548 121.47 13.4198C121.914 12.5809 122.523 11.9475 123.296 11.5198C124.086 11.0757 124.99 10.8536 126.01 10.8536C127.047 10.8536 127.902 11.2319 128.576 11.9887C129.251 12.7454 129.588 13.8475 129.588 15.2952ZM140.538 13.6172C140.159 13.1895 139.6 12.9757 138.86 12.9757C138.12 12.9757 137.47 13.3869 136.91 14.2094C136.368 15.0155 136.096 16.1341 136.096 17.5653C136.096 20.4277 136.976 21.8588 138.736 21.8588C139.51 21.8588 140.11 21.5381 140.538 20.8965V13.6172ZM144.412 7.62111V21.4887C144.412 22.377 144.683 22.961 145.226 23.2407C144.601 23.948 143.844 24.3017 142.956 24.3017C141.854 24.3017 141.13 23.8575 140.784 22.9692C140.423 23.3805 139.954 23.7095 139.378 23.9562C138.819 24.1866 138.268 24.3017 137.725 24.3017C136.096 24.3017 134.747 23.7342 133.678 22.5991C132.625 21.464 132.099 19.9095 132.099 17.9354C132.099 15.945 132.699 14.267 133.9 12.9016C135.101 11.5363 136.721 10.8536 138.761 10.8536C139.337 10.8536 139.929 10.9194 140.538 11.051V7.47305C140.538 6.65054 140.258 6.06655 139.699 5.7211C140.324 5.03018 141.081 4.68473 141.969 4.68473C143.597 4.68473 144.412 5.66352 144.412 7.62111Z" fill="#FFCA00"/>
</svg>
