<svg width="150" height="45" viewBox="0 0 150 45" fill="none" xmlns="http://www.w3.org/2000/svg">
<path d="M25.6215 16.9446L23.376 14.8719V9.27064C23.376 8.77714 22.9812 8.38234 22.4877 8.38234H19.4774C18.9345 8.38234 18.4904 8.82649 18.4904 9.36934V10.3563L16.1956 8.20962C14.3943 6.55639 11.6307 6.55639 9.85413 8.20962L0.403596 16.9446C0.0581459 17.2653 -0.0652292 17.7835 0.107496 18.2277C0.280221 18.6718 0.724371 18.9679 1.1932 18.9679H2.42695C2.40227 19.3134 2.3776 19.6341 2.3776 19.9796V23.6562C2.3776 29.5042 7.16455 34.2911 13.0125 34.2911C18.8605 34.2911 23.6475 29.5042 23.6475 23.6562V20.0043C23.6475 19.6588 23.6228 19.3134 23.5981 18.9926H24.8319C25.3254 18.9926 25.7448 18.6965 25.9176 18.2523C26.0903 17.7835 25.9916 17.2653 25.6215 16.9446ZM13.6047 17.2653C14.1969 16.1303 15.48 15.6615 16.467 16.1796C17.454 16.6978 17.7995 18.0303 17.2073 19.1653C16.6151 20.3004 15.332 20.7692 14.345 20.251C13.3333 19.7328 13.0125 18.4004 13.6047 17.2653ZM9.55803 16.1796C10.545 15.6615 11.8528 16.155 12.4203 17.2653C13.0125 18.4004 12.6918 19.7328 11.6801 20.251C10.6931 20.7692 9.3853 20.2757 8.81778 19.1653C8.22558 18.0303 8.54635 16.6978 9.55803 16.1796ZM5.80742 21.7809C5.31392 20.8186 5.58535 19.6835 6.4243 19.2393C7.26325 18.7952 8.37363 19.2147 8.86713 20.177C9.36063 21.1393 9.0892 22.2744 8.25025 22.7185C7.4113 23.1627 6.3256 22.7432 5.80742 21.7809ZM13.0125 30.4171C11.6554 30.3925 7.92948 30.3678 7.92948 27.086C7.92948 23.3107 10.9398 21.164 13.0125 21.164C15.0852 21.164 18.0956 23.2861 18.0956 27.086C18.1203 30.3678 14.3943 30.3925 13.0125 30.4171ZM20.2176 21.7809C19.7241 22.7432 18.6138 23.1627 17.7748 22.7185C16.9359 22.2744 16.6398 21.1393 17.1579 20.177C17.6514 19.2147 18.7618 18.7952 19.6008 19.2393C20.4397 19.6835 20.7358 20.8186 20.2176 21.7809Z" fill="#FFCA00"/>
<path d="M42.2299 15.1337H40.8234V22.2649H42.2299C43.365 22.2649 44.2368 21.9441 44.8455 21.3026C45.4706 20.6445 45.7832 19.7727 45.7832 18.687C45.7832 17.5848 45.4706 16.7211 44.8455 16.096C44.2368 15.4545 43.365 15.1337 42.2299 15.1337ZM38.3559 12.8389H42.9702C43.0195 12.8389 43.0689 12.8389 43.1182 12.8389C45.8325 12.8389 47.8477 13.6778 49.1637 15.3558C49.8875 16.277 50.2494 17.3874 50.2494 18.687C50.2494 19.9865 49.8875 21.0887 49.1637 21.9935C47.8312 23.6878 45.7667 24.535 42.9702 24.535H40.7987V28.4584C40.7987 29.3467 41.0702 29.9307 41.613 30.2104C40.9879 30.9177 40.2312 31.2714 39.3429 31.2714C37.7307 31.2714 36.9247 30.2926 36.9247 28.3351V15.6272C36.9247 14.7882 36.645 14.2207 36.0857 13.9246C36.6944 13.2008 37.4511 12.8389 38.3559 12.8389ZM55.7245 27.6195C55.7245 28.4255 56.1851 28.8286 57.1063 28.8286C57.7808 28.8286 58.3894 28.516 58.9323 27.8909V25.4974C56.7937 25.6125 55.7245 26.3199 55.7245 27.6195ZM62.8063 22.2649V27.8662C62.8063 28.9026 63.2505 29.5606 64.1388 29.8403C63.8427 30.2515 63.4397 30.597 62.9297 30.8766C62.4362 31.1398 61.9098 31.2714 61.3505 31.2714C60.1332 31.2714 59.3764 30.7286 59.0803 29.6429C58.0604 30.7286 56.7855 31.2714 55.2556 31.2714C54.1206 31.2714 53.2158 30.9918 52.5413 30.4325C51.8669 29.8732 51.5297 29.0835 51.5297 28.0636C51.5297 26.8134 52.1794 25.8182 53.479 25.0779C54.795 24.3212 56.6128 23.9264 58.9323 23.8935V21.5493C58.9323 20.4471 58.4881 19.8961 57.5998 19.8961C57.2379 19.8961 56.9336 20.0112 56.6868 20.2415C56.4565 20.4554 56.3414 20.7515 56.3414 21.1298C56.3414 21.4917 56.473 21.829 56.7362 22.1415C56.1769 22.7337 55.4695 23.0298 54.6141 23.0298C53.7751 23.0298 53.15 22.8407 52.7388 22.4623C52.3439 22.0839 52.1465 21.5904 52.1465 20.9818C52.1465 20.0606 52.7058 19.3038 53.8245 18.7116C54.9595 18.1194 56.2756 17.8233 57.7725 17.8233C59.286 17.8233 60.5033 18.177 61.4245 18.8844C62.3457 19.5917 62.8063 20.7186 62.8063 22.2649ZM82.8264 20.4883C82.9251 19.9783 82.9745 19.5259 82.9745 19.1311C82.9745 18.7363 82.9087 18.432 82.7771 18.2181C83.287 17.9549 83.9039 17.8233 84.6277 17.8233C85.3515 17.8233 85.8862 18.1359 86.2316 18.761C86.429 19.1064 86.5277 19.4683 86.5277 19.8467C86.5277 20.2086 86.4784 20.5623 86.3797 20.9077L84.2576 28.1623C83.9121 29.3303 83.5091 30.1446 83.0485 30.6052C82.5879 31.0494 81.8723 31.2714 80.9017 31.2714C79.9476 31.2714 79.2238 31.0247 78.7303 30.5312C78.2368 30.0377 77.8666 29.248 77.6199 28.1623L76.4355 22.9311L75.2017 28.1623C74.922 29.2974 74.5272 30.1035 74.0173 30.5805C73.5073 31.0411 72.7341 31.2714 71.6978 31.2714C70.6614 31.2714 69.8965 31.0494 69.403 30.6052C68.9259 30.161 68.5229 29.3467 68.1939 28.1623L66.3432 21.2779C66.1787 20.6857 66.0142 20.2415 65.8497 19.9454C65.6852 19.6328 65.4631 19.4025 65.1835 19.2545C65.7921 18.3004 66.6393 17.8233 67.725 17.8233C69.0904 17.8233 69.9376 18.7528 70.2666 20.6116L71.6731 28.2364L73.5238 20.3896C73.7541 19.419 74.1077 18.7528 74.5848 18.3908C75.0783 18.0125 75.761 17.8233 76.6329 17.8233C77.5047 17.8233 78.1956 18.0125 78.7056 18.3908C79.2156 18.7692 79.561 19.4354 79.742 20.3896L81.2965 28.0389L82.8264 20.4883Z" fill="white"/>
<path d="M89.8363 26.8792V15.3558C89.8363 14.5004 89.5649 13.9328 89.0221 13.6532C89.6143 12.9458 90.3628 12.5921 91.2675 12.5921C92.9126 12.5921 93.7351 13.5627 93.7351 15.5038V26.3857C93.7351 27.5537 94.245 28.1376 95.2649 28.1376H97.8065C98.9745 28.1376 99.8628 27.8086 100.471 27.1506C100.866 27.4303 101.064 27.8991 101.064 28.5571C101.064 29.1987 100.8 29.7662 100.274 30.2597C99.7641 30.7532 99.0156 31 98.0286 31H94.3273C92.6822 31 91.5225 30.6957 90.848 30.087C90.1736 29.4783 89.8363 28.4091 89.8363 26.8792ZM106.834 27.6195C106.834 28.4255 107.295 28.8286 108.216 28.8286C108.891 28.8286 109.499 28.516 110.042 27.8909V25.4974C107.904 25.6125 106.834 26.3199 106.834 27.6195ZM113.916 22.2649V27.8662C113.916 28.9026 114.36 29.5606 115.249 29.8403C114.953 30.2515 114.55 30.597 114.04 30.8766C113.546 31.1398 113.02 31.2714 112.46 31.2714C111.243 31.2714 110.486 30.7286 110.19 29.6429C109.17 30.7286 107.895 31.2714 106.366 31.2714C105.231 31.2714 104.326 30.9918 103.651 30.4325C102.977 29.8732 102.64 29.0835 102.64 28.0636C102.64 26.8134 103.289 25.8182 104.589 25.0779C105.905 24.3212 107.723 23.9264 110.042 23.8935V21.5493C110.042 20.4471 109.598 19.8961 108.71 19.8961C108.348 19.8961 108.044 20.0112 107.797 20.2415C107.566 20.4554 107.451 20.7515 107.451 21.1298C107.451 21.4917 107.583 21.829 107.846 22.1415C107.287 22.7337 106.579 23.0298 105.724 23.0298C104.885 23.0298 104.26 22.8407 103.849 22.4623C103.454 22.0839 103.257 21.5904 103.257 20.9818C103.257 20.0606 103.816 19.3038 104.934 18.7116C106.07 18.1194 107.386 17.8233 108.883 17.8233C110.396 17.8233 111.613 18.177 112.534 18.8844C113.456 19.5917 113.916 20.7186 113.916 22.2649ZM129.618 22.2649V28.4584C129.618 29.3467 129.881 29.9307 130.408 30.2104C129.816 30.9177 129.067 31.2714 128.162 31.2714C126.55 31.2714 125.744 30.2926 125.744 28.3351V22.8324C125.744 22.2402 125.596 21.7796 125.3 21.4506C125.02 21.1051 124.617 20.9324 124.091 20.9324C123.564 20.9324 123.054 21.1792 122.561 21.6727C122.067 22.1497 121.714 22.8653 121.5 23.8194V28.4584C121.5 29.3467 121.771 29.9307 122.314 30.2104C121.689 30.9177 120.932 31.2714 120.044 31.2714C118.432 31.2714 117.626 30.2926 117.626 28.3351V20.6116C117.626 19.7562 117.346 19.1805 116.787 18.8844C117.412 18.177 118.144 17.8233 118.983 17.8233C119.822 17.8233 120.439 18.0372 120.834 18.4649C121.229 18.8761 121.451 19.5177 121.5 20.3896C121.944 19.5506 122.553 18.9173 123.326 18.4896C124.116 18.0454 125.02 17.8233 126.04 17.8233C127.077 17.8233 127.932 18.2017 128.606 18.9584C129.281 19.7151 129.618 20.8173 129.618 22.2649ZM140.568 20.587C140.189 20.1593 139.63 19.9454 138.89 19.9454C138.15 19.9454 137.5 20.3567 136.94 21.1792C136.398 21.9852 136.126 23.1039 136.126 24.535C136.126 27.3974 137.006 28.8286 138.766 28.8286C139.54 28.8286 140.14 28.5078 140.568 27.8662V20.587ZM144.442 14.5908V28.4584C144.442 29.3467 144.713 29.9307 145.256 30.2104C144.631 30.9177 143.874 31.2714 142.986 31.2714C141.884 31.2714 141.16 30.8273 140.814 29.939C140.453 30.3502 139.984 30.6792 139.408 30.926C138.849 31.1563 138.298 31.2714 137.755 31.2714C136.126 31.2714 134.777 30.7039 133.708 29.5688C132.655 28.4338 132.129 26.8792 132.129 24.9052C132.129 22.9147 132.729 21.2368 133.93 19.8714C135.131 18.506 136.751 17.8233 138.791 17.8233C139.367 17.8233 139.959 17.8891 140.568 18.0207V14.4428C140.568 13.6203 140.288 13.0363 139.729 12.6908C140.354 11.9999 141.111 11.6545 141.999 11.6545C143.627 11.6545 144.442 12.6332 144.442 14.5908Z" fill="#FFCA00"/>
</svg>
